<svg width="40" height="40" viewBox="0 0 40 40" fill="none" xmlns="http://www.w3.org/2000/svg">
<path d="M20 39.0476C30.5197 39.0476 39.0476 30.5197 39.0476 20C39.0476 9.4803 30.5197 0.952393 20 0.952393C9.4803 0.952393 0.952393 9.4803 0.952393 20C0.952393 30.5197 9.4803 39.0476 20 39.0476Z" fill="#1E96C8"/>
<path d="M29.1101 11.5357C29.1359 11.5185 29.6859 11.2693 30.1758 11.5959C30.554 11.8537 30.7344 12.3436 30.6055 12.8163C29.4109 18.4543 28.2076 24.0924 27.013 29.7304C27.0044 29.7992 26.9356 30.3406 26.4458 30.6328C26.1192 30.8305 25.7066 30.8563 25.3457 30.7016C25.2511 30.6586 25.1566 30.5985 25.0706 30.5383C22.2344 28.4068 19.3982 26.2754 16.562 24.1353L26.4544 15.24C26.4801 15.197 26.5919 15.0595 26.5489 14.9735C26.5145 14.9048 26.3942 14.879 26.2309 14.9048C26.0762 14.922 25.9301 14.9821 25.8012 15.0681C21.7359 17.6293 17.6793 20.1904 13.6141 22.7516L8.08777 21.0757C7.85571 20.9038 7.52912 20.6288 7.5549 20.3022C7.58069 20.0014 7.89869 19.7951 8.01901 19.7177C9.01598 19.0989 25.148 13.0226 29.1101 11.5357Z" fill="white"/>
<path d="M16.5621 24.1439L16.2097 29.6101C16.3386 29.6015 16.5277 29.5843 16.7426 29.4897C17.0004 29.378 17.1723 29.2147 17.2668 29.1116C18.1177 28.2693 18.9686 27.427 19.8194 26.5848L16.5621 24.1439Z" fill="#A9C9DD"/>
<path d="M16.2012 29.61C16.0551 29.61 15.8832 29.5842 15.7457 29.4725C15.5824 29.3349 15.5308 29.1373 15.5223 29.0857C15.4277 28.699 14.6714 26.1979 13.6143 22.7601L25.8014 15.0766C25.8529 15.0422 25.9217 14.9992 26.0162 14.9648C26.1709 14.9047 26.4631 14.8359 26.5405 14.9476C26.5749 14.9906 26.5577 15.0594 26.5491 15.0852C26.5491 15.0852 26.5319 15.1711 26.4545 15.2485C26.3514 15.3516 22.2088 19.073 16.5622 24.1438L16.2012 29.61Z" fill="#C8DAEA"/>
</svg>
