<svg width="40" height="40" viewBox="0 0 40 40" fill="none" xmlns="http://www.w3.org/2000/svg">
<rect x="1.90479" y="1.90479" width="36.1905" height="36.1905" rx="4" fill="#7C509A"/>
<path d="M30.3262 9.35609C29.6288 8.72511 26.8059 6.71318 20.5123 6.68629C20.5123 6.68629 13.0928 6.24942 9.47917 9.50721C7.46913 11.4812 6.76071 14.3777 6.6838 17.9644C6.60689 21.5513 6.51354 28.2717 13.1093 30.0948H13.1147L13.1093 32.8779C13.1093 32.8779 13.0654 34.0052 13.8232 34.2317C14.7349 34.5123 15.2731 33.6547 16.1462 32.7323C16.6241 32.2253 17.283 31.481 17.7828 30.9146C22.2971 31.2868 25.7626 30.4346 26.1579 30.3106C27.0696 30.0194 32.2264 29.372 33.0611 22.6515C33.9288 15.7153 32.6438 11.3356 30.3262 9.35609ZM31.0896 22.1446C30.3811 27.7538 26.2018 28.1099 25.433 28.3526C25.1035 28.455 22.0555 29.1994 18.2277 28.9567C18.2277 28.9567 15.3719 32.3385 14.4822 33.2178C14.1912 33.5036 13.8727 33.4766 13.8782 32.9102C13.8782 32.5382 13.9001 28.2879 13.9001 28.2879C13.8946 28.2879 13.8946 28.2879 13.9001 28.2879C8.30936 26.7668 8.63888 21.0442 8.69928 18.0507C8.75968 15.0573 9.33636 12.6031 11.0388 10.9527C14.0978 8.22887 20.397 8.63343 20.397 8.63343C25.7185 8.65498 28.2668 10.2299 28.8599 10.7585C30.8205 12.409 31.8201 16.3572 31.0896 22.1446ZM23.4559 17.7864C23.4778 18.2503 22.7694 18.2827 22.7475 17.8188C22.687 16.6322 22.1213 16.0551 20.9571 15.9904C20.4848 15.9634 20.5287 15.2676 20.9955 15.2946C22.5278 15.3755 23.3791 16.2385 23.4559 17.7864ZM24.5708 18.3959C24.6256 16.109 23.1704 14.3183 20.4079 14.1188C19.9411 14.0864 19.9906 13.3906 20.4574 13.4229C23.6427 13.6495 25.3396 15.8016 25.2792 18.4121C25.2737 18.8759 24.5597 18.8544 24.5708 18.3959ZM27.152 19.1186C27.1574 19.5825 26.4435 19.5879 26.4435 19.1241C26.4105 14.7282 23.4285 12.3334 19.8093 12.3065C19.3425 12.3011 19.3425 11.6107 19.8093 11.6107C23.8568 11.6377 27.1135 14.383 27.152 19.1186ZM26.5313 24.4098V24.4207C25.9382 25.4455 24.8289 26.5782 23.6866 26.2168L23.6756 26.2005C22.5168 25.8824 19.7874 24.5016 18.0629 23.1531C17.1732 22.4627 16.3604 21.6483 15.7343 20.8662C15.1687 20.1704 14.5976 19.3451 14.0429 18.3528C12.8732 16.2762 12.6151 15.3485 12.6151 15.3485C12.2471 14.2266 13.3949 13.137 14.4438 12.5546H14.4548C14.9601 12.2956 15.4433 12.3819 15.7673 12.7648C15.7673 12.7648 16.4484 13.563 16.7394 13.9569C17.014 14.3236 17.382 14.9115 17.5742 15.2405C17.9092 15.8284 17.7004 16.4271 17.3709 16.6751L16.7119 17.193C16.377 17.4572 16.4209 17.9481 16.4209 17.9481C16.4209 17.9481 17.3984 21.5781 21.0505 22.495C21.0505 22.495 21.5503 22.5382 21.8193 22.2092L22.3466 21.5619C22.5992 21.2383 23.2089 21.0334 23.8074 21.3624C24.6148 21.81 25.6417 22.5058 26.3227 23.1369C26.7071 23.4443 26.7949 23.9137 26.5313 24.4098Z" fill="white"/>
</svg>
