<svg width="40" height="40" viewBox="0 0 40 40" fill="none" xmlns="http://www.w3.org/2000/svg">
<rect x="1.90479" y="1.90479" width="36.1905" height="36.1905" rx="3" fill="#54769B"/>
<path d="M20.847 27.6191C21.6935 27.6191 21.6935 26.4339 21.6935 25.926C21.6935 25.0794 22.5401 24.2328 23.3866 24.2328C24.2332 24.2328 25.6724 25.672 26.7729 26.7725C27.6194 27.6191 27.6194 27.6191 28.466 27.6191C29.3126 27.6191 31.0057 27.6191 31.0057 27.6191C31.0057 27.6191 32.6988 27.5344 32.6988 25.926C32.6988 25.418 32.1062 24.4868 30.1591 22.5397C28.466 20.8466 27.6194 21.6932 30.1591 18.3069C31.6829 16.1905 32.8681 14.3281 32.6988 13.8201C32.5295 13.3122 28.212 12.4656 27.6194 13.2275C25.9263 15.7672 25.5877 16.3598 25.0798 17.4603C24.2332 19.1535 24.1485 20 23.3866 20C22.6247 20 22.5401 18.3916 22.5401 17.4603C22.5401 14.6667 22.9634 12.7196 21.6935 12.381C21.6935 12.381 20.0004 12.381 19.1538 12.381C17.7993 12.381 16.6141 13.2275 16.6141 13.2275C16.6141 13.2275 15.5983 14.0741 15.7676 14.0741C16.0216 14.0741 17.4607 13.7355 17.4607 14.9207C17.4607 15.7672 17.4607 16.6138 17.4607 16.6138C17.4607 16.6138 17.4607 20 16.6141 20C15.7676 20 14.0745 16.6138 12.3813 14.0741C11.7041 13.0582 11.5348 13.2275 10.6882 13.2275C9.75701 13.2275 8.9951 13.2275 8.14854 13.2275C7.30198 13.2275 7.21732 13.7355 7.30198 14.0741C8.9951 18.3069 10.1803 20.9312 13.3972 24.3175C16.3602 27.3651 18.3073 27.5344 20.0004 27.6191C20.4237 27.6191 20.0004 27.6191 20.847 27.6191Z" fill="white"/>
</svg>
